<svg width="20" height="20" viewBox="0 0 20 20" fill="none" xmlns="http://www.w3.org/2000/svg">
<path d="M5.25 4C5.05109 4 4.86032 4.07902 4.71967 4.21967C4.57902 4.36032 4.5 4.55109 4.5 4.75V12.25C4.5 12.4489 4.57902 12.6397 4.71967 12.7803C4.86032 12.921 5.05109 13 5.25 13C5.44891 13 5.63968 12.921 5.78033 12.7803C5.92098 12.6397 6 12.4489 6 12.25V4.75C6 4.55109 5.92098 4.36032 5.78033 4.21967C5.63968 4.07902 5.44891 4 5.25 4ZM10 4C9.80109 4 9.61032 4.07902 9.46967 4.21967C9.32902 4.36032 9.25 4.55109 9.25 4.75V9.25C9.25 9.44891 9.32902 9.63968 9.46967 9.78033C9.61032 9.92098 9.80109 10 10 10C10.1989 10 10.3897 9.92098 10.5303 9.78033C10.671 9.63968 10.75 9.44891 10.75 9.25V4.75C10.75 4.55109 10.671 4.36032 10.5303 4.21967C10.3897 4.07902 10.1989 4 10 4ZM14 4.75C14 4.55109 14.079 4.36032 14.2197 4.21967C14.3603 4.07902 14.5511 4 14.75 4C14.9489 4 15.1397 4.07902 15.2803 4.21967C15.421 4.36032 15.5 4.55109 15.5 4.75V14.25C15.5 14.4489 15.421 14.6397 15.2803 14.7803C15.1397 14.921 14.9489 15 14.75 15C14.5511 15 14.3603 14.921 14.2197 14.7803C14.079 14.6397 14 14.4489 14 14.25V4.75Z" fill="#055F5B"/>
<path fill-rule="evenodd" clip-rule="evenodd" d="M1.75 0C1.28587 0 0.840752 0.184375 0.512563 0.512563C0.184375 0.840752 0 1.28587 0 1.75V18.25C0 19.216 0.784 20 1.75 20H18.25C18.7141 20 19.1592 19.8156 19.4874 19.4874C19.8156 19.1592 20 18.7141 20 18.25V1.75C20 1.28587 19.8156 0.840752 19.4874 0.512563C19.1592 0.184375 18.7141 0 18.25 0H1.75ZM1.5 1.75C1.5 1.6837 1.52634 1.62011 1.57322 1.57322C1.62011 1.52634 1.6837 1.5 1.75 1.5H18.25C18.3163 1.5 18.3799 1.52634 18.4268 1.57322C18.4737 1.62011 18.5 1.6837 18.5 1.75V18.25C18.5 18.3163 18.4737 18.3799 18.4268 18.4268C18.3799 18.4737 18.3163 18.5 18.25 18.5H1.75C1.6837 18.5 1.62011 18.4737 1.57322 18.4268C1.52634 18.3799 1.5 18.3163 1.5 18.25V1.75Z" fill="#055F5B"/>
</svg>
